<?xml version="1.0" encoding="UTF-8"?>
<svg xmlns="http://www.w3.org/2000/svg" width="1920" height="1080" viewBox="0 0 1920 1080">
  
      <rect width="1920" height="1080" fill="#121A21"/>
      <path d="M 820 441.56 Q 960 355.32 1100 379.96" stroke="#C9A05A" stroke-width="10" stroke-linecap="round" fill="none"/>
      <circle cx="1100" cy="379.96" r="5" fill="#C9A05A"/>
      <path d="M832.67 531.49L832.67 537.9L812.22 537.9L812.22 560L805.16 560L805.16 507.94L836.56 507.94L836.56 514.42L812.22 514.42L812.22 531.49L832.67 531.49 M867.59 543.37L867.59 524.79L874.28 524.79L874.28 560L868.24 560L867.52 554.67Q866 557.48 862.76 559.17Q859.52 560.86 855.64 560.86L855.64 560.86Q849.59 560.86 846.2 557.05Q842.82 553.23 842.82 546.68L842.82 546.68L842.82 524.79L849.59 524.79L849.59 544.45Q849.59 554.89 858.01 554.89L858.01 554.89Q862.69 554.89 865.14 551.94Q867.59 548.98 867.59 543.37L867.59 543.37 M893.29 530.48L893.29 560L886.52 560L886.52 530.48L879.61 530.48L879.61 524.79L886.52 524.79L886.52 513.78L893.29 513.78L893.29 524.79L900.2 524.79L900.2 530.48L893.29 530.48 M929.87 543.37L929.87 524.79L936.56 524.79L936.56 560L930.52 560L929.8 554.67Q928.28 557.48 925.04 559.17Q921.8 560.86 917.92 560.86L917.92 560.86Q911.87 560.86 908.48 557.05Q905.1 553.23 905.1 546.68L905.1 546.68L905.1 524.79L911.87 524.79L911.87 544.45Q911.87 554.89 920.29 554.89L920.29 554.89Q924.97 554.89 927.42 551.94Q929.87 548.98 929.87 543.37L929.87 543.37 M965.8 524.5L965.8 524.5L965.8 530.7L962.77 530.7Q957.95 530.7 955.18 533.5Q952.4 536.31 952.4 541.35L952.4 541.35L952.4 560L945.64 560L945.64 524.86L951.97 524.86L952.4 530.19Q953.48 527.38 956.08 525.73Q958.67 524.07 962.2 524.07L962.2 524.07Q963.78 524.07 965.8 524.5 M986.6 560.86L986.6 560.86Q978.83 560.86 973.97 555.75Q969.11 550.64 969.11 542.43L969.11 542.43Q969.11 534.15 973.9 528.97Q978.68 523.78 986.32 523.78L986.32 523.78Q993.8 523.78 998.34 528.54Q1002.88 533.29 1002.88 541.14L1002.88 541.14L1002.88 543.66L975.66 543.73Q976.02 549.27 978.86 552.26Q981.71 555.25 986.75 555.25L986.75 555.25Q994.81 555.25 996.61 549.06L996.61 549.06L1002.95 549.06Q1001.65 554.74 997.4 557.8Q993.16 560.86 986.6 560.86M986.32 529.47L986.32 529.47Q981.92 529.47 979.19 531.99Q976.45 534.51 975.8 539.19L975.8 539.19L996.11 539.19Q996.11 534.8 993.44 532.14Q990.78 529.47 986.32 529.47 M1017.92 536.89L1017.92 560L1010.87 560L1010.87 507.94L1017.92 507.94L1017.92 530.34L1043.7 530.34L1043.7 507.94L1050.76 507.94L1050.76 560L1043.7 560L1043.7 536.89L1017.92 536.89 M1076.17 560.86L1076.17 560.86Q1068.4 560.86 1063.54 555.75Q1058.68 550.64 1058.68 542.43L1058.68 542.43Q1058.68 534.15 1063.46 528.97Q1068.25 523.78 1075.88 523.78L1075.88 523.78Q1083.37 523.78 1087.91 528.54Q1092.44 533.29 1092.44 541.14L1092.44 541.14L1092.44 543.66L1065.23 543.73Q1065.59 549.27 1068.43 552.26Q1071.28 555.25 1076.32 555.25L1076.32 555.25Q1084.38 555.25 1086.18 549.06L1086.18 549.06L1092.52 549.06Q1091.22 554.74 1086.97 557.8Q1082.72 560.86 1076.17 560.86M1075.88 529.47L1075.88 529.47Q1071.49 529.47 1068.76 531.99Q1066.02 534.51 1065.37 539.19L1065.37 539.19L1085.68 539.19Q1085.68 534.8 1083.01 532.14Q1080.35 529.47 1075.88 529.47 M1119.44 524.5L1119.44 524.5L1119.44 530.7L1116.42 530.7Q1111.6 530.7 1108.82 533.5Q1106.05 536.31 1106.05 541.35L1106.05 541.35L1106.05 560L1099.28 560L1099.28 524.86L1105.62 524.86L1106.05 530.19Q1107.13 527.38 1109.72 525.73Q1112.32 524.07 1115.84 524.07L1115.84 524.07Q1117.43 524.07 1119.44 524.5" fill="#FFFCF8"/>
</svg>