<?xml version="1.0" encoding="UTF-8"?>
<svg xmlns="http://www.w3.org/2000/svg" width="640" height="280" viewBox="0 0 640 280" fill="none">
  <rect width="640" height="280" fill="#121A21"/>
  <path d="M 210 94.94 Q 320 27.18 430 46.54" stroke="#FFFCF8" stroke-width="7" stroke-linecap="round" fill="none"/>
  <circle cx="430" cy="46.54" r="3.5" fill="#FFFCF8"/>
  <path d="M206.82 149.66L206.82 155.35L188.64 155.35L188.64 175L182.37 175L182.37 128.73L210.27 128.73L210.27 134.49L188.64 134.49L188.64 149.66L206.82 149.66 M237.86 160.22L237.86 143.7L243.81 143.7L243.81 175L238.43 175L237.79 170.26Q236.45 172.76 233.57 174.26Q230.69 175.77 227.23 175.77L227.23 175.77Q221.86 175.77 218.85 172.38Q215.84 168.98 215.84 163.16L215.84 163.16L215.84 143.7L221.86 143.7L221.86 161.18Q221.86 170.46 229.34 170.46L229.34 170.46Q233.5 170.46 235.68 167.83Q237.86 165.21 237.86 160.22L237.86 160.22 M260.7 148.76L260.7 175L254.69 175L254.69 148.76L248.54 148.76L248.54 143.7L254.69 143.7L254.69 133.91L260.7 133.91L260.7 143.7L266.85 143.7L266.85 148.76L260.7 148.76 M293.22 160.22L293.22 143.7L299.17 143.7L299.17 175L293.79 175L293.15 170.26Q291.81 172.76 288.93 174.26Q286.05 175.77 282.59 175.77L282.59 175.77Q277.22 175.77 274.21 172.38Q271.2 168.98 271.2 163.16L271.2 163.16L271.2 143.7L277.22 143.7L277.22 161.18Q277.22 170.46 284.7 170.46L284.7 170.46Q288.86 170.46 291.04 167.83Q293.22 165.21 293.22 160.22L293.22 160.22 M325.15 143.45L325.15 143.45L325.15 148.95L322.46 148.95Q318.18 148.95 315.71 151.45Q313.25 153.94 313.25 158.42L313.25 158.42L313.25 175L307.23 175L307.23 143.77L312.86 143.77L313.25 148.5Q314.21 146.01 316.51 144.54Q318.82 143.06 321.95 143.06L321.95 143.06Q323.36 143.06 325.15 143.45 M343.65 175.77L343.65 175.77Q336.74 175.77 332.42 171.22Q328.1 166.68 328.1 159.38L328.1 159.38Q328.1 152.02 332.35 147.42Q336.61 142.81 343.39 142.81L343.39 142.81Q350.05 142.81 354.08 147.03Q358.11 151.26 358.11 158.23L358.11 158.23L358.11 160.47L333.92 160.54Q334.24 165.46 336.77 168.12Q339.3 170.78 343.78 170.78L343.78 170.78Q350.94 170.78 352.54 165.27L352.54 165.27L358.18 165.27Q357.02 170.33 353.25 173.05Q349.47 175.77 343.65 175.77M343.39 147.86L343.39 147.86Q339.49 147.86 337.06 150.1Q334.62 152.34 334.05 156.5L334.05 156.5L352.1 156.5Q352.1 152.6 349.73 150.23Q347.36 147.86 343.39 147.86 M371.49 154.46L371.49 175L365.22 175L365.22 128.73L371.49 128.73L371.49 148.63L394.4 148.63L394.4 128.73L400.67 128.73L400.67 175L394.4 175L394.4 154.46L371.49 154.46 M423.26 175.77L423.26 175.77Q416.35 175.77 412.03 171.22Q407.71 166.68 407.71 159.38L407.71 159.38Q407.71 152.02 411.97 147.42Q416.22 142.81 423.01 142.81L423.01 142.81Q429.66 142.81 433.7 147.03Q437.73 151.26 437.73 158.23L437.73 158.23L437.73 160.47L413.54 160.54Q413.86 165.46 416.38 168.12Q418.91 170.78 423.39 170.78L423.39 170.78Q430.56 170.78 432.16 165.27L432.16 165.27L437.79 165.27Q436.64 170.33 432.86 173.05Q429.09 175.77 423.26 175.77M423.01 147.86L423.01 147.86Q419.1 147.86 416.67 150.1Q414.24 152.34 413.66 156.5L413.66 156.5L431.71 156.5Q431.71 152.6 429.34 150.23Q426.98 147.86 423.01 147.86 M461.73 143.45L461.73 143.45L461.73 148.95L459.04 148.95Q454.75 148.95 452.29 151.45Q449.82 153.94 449.82 158.42L449.82 158.42L449.82 175L443.81 175L443.81 143.77L449.44 143.77L449.82 148.5Q450.78 146.01 453.09 144.54Q455.39 143.06 458.53 143.06L458.53 143.06Q459.94 143.06 461.73 143.45" fill="#FFFCF8"/>
</svg>